<svg width="110" height="23" viewBox="0 0 110 23" fill="none" xmlns="http://www.w3.org/2000/svg">
<g id="Group 75" opacity="0.75">
<path id="Star 3" d="M54.966 0L57.4342 7.89111H65.4214L58.9596 12.7681L61.4278 20.6592L54.966 15.7822L48.5043 20.6592L50.9725 12.7681L44.5107 7.89111H52.4979L54.966 0Z" fill="#FFA800"/>
<path id="Star 1" d="M10.9934 0L13.4615 7.89111H21.4487L14.987 12.7681L17.4551 20.6592L10.9934 15.7822L4.53163 20.6592L6.9998 12.7681L0.538054 7.89111H8.52521L10.9934 0Z" fill="#FFA800"/>
<path id="Star 2" d="M32.9797 0L35.4479 7.89111H43.435L36.9733 12.7681L39.4415 20.6592L32.9797 15.7822L26.518 20.6592L28.9861 12.7681L22.5244 7.89111H30.5115L32.9797 0Z" fill="#FFA800"/>
<path id="Star 4" d="M76.9543 0L79.4225 7.89111H87.4096L80.9479 12.7681L83.4161 20.6592L76.9543 15.7822L70.4926 20.6592L72.9607 12.7681L66.499 7.89111H74.4861L76.9543 0Z" fill="#FFA800"/>
<path id="Star 5" d="M98.9406 0L101.409 7.89111H109.396L102.934 12.7681L105.402 20.6592L98.9406 15.7822L92.4789 20.6592L94.9471 12.7681L88.4853 7.89111H96.4725L98.9406 0Z" fill="#7D807D"/>
</g>
</svg>
